<svg xmlns="http://www.w3.org/2000/svg" viewBox="0 0 64 64" role="img" aria-label="Cloi monogram">
  <rect width="64" height="64" rx="14" fill="#0e100c"/>
  <path d="M43.5 43.4c-3 3.1-6.9 4.6-11.5 4.6-4.8 0-8.8-1.5-11.9-4.6-3-3.1-4.6-6.9-4.6-11.4 0-4.6 1.5-8.4 4.6-11.4C23.2 17.5 27.2 16 32 16c4.5 0 8.3 1.4 11.3 4.3l-5.1 6.1c-1.7-1.7-3.7-2.5-6.1-2.5-2.3 0-4.2.8-5.7 2.3-1.5 1.5-2.2 3.5-2.2 5.8 0 2.4.7 4.4 2.2 5.9 1.5 1.5 3.4 2.3 5.8 2.3 2.6 0 4.7-.9 6.4-2.8l4.9 6z" fill="#ddf160"/>
  <circle cx="48" cy="16" r="4" fill="#f6f3ec"/>
</svg>
